/* XPM */
static char * icon_xpm[] = {
"48 48 448 2",
"  	c None",
". 	c #CACACA",
"+ 	c #CCCCCC",
"@ 	c #C8C8C8",
"# 	c #C7C7C7",
"$ 	c #F2F2F2",
"% 	c #F3F3F3",
"& 	c #F4F4F4",
"* 	c #F5F5F5",
"= 	c #EEEEEE",
"- 	c #ECECEC",
"; 	c #E5E5E5",
"> 	c #CBCBCB",
", 	c #F9F9F9",
"' 	c #EAEAEA",
") 	c #DFDFDF",
"! 	c #EBEBEB",
"~ 	c #E7E7E7",
"{ 	c #D4D4D4",
"] 	c #828282",
"^ 	c #BDBDBD",
"/ 	c #F0F0F0",
"( 	c #E6E6E6",
"_ 	c #DADADA",
": 	c #C6C6C6",
"< 	c #F8F8F8",
"[ 	c #F1F1F1",
"} 	c #CDCBC1",
"| 	c #C9C7BD",
"1 	c #DBDBDB",
"2 	c #F7F7F7",
"3 	c #EDEDED",
"4 	c #E4E4E4",
"5 	c #D9D9D9",
"6 	c #C9C9C9",
"7 	c #C0BDB0",
"8 	c #EFEFEF",
"9 	c #BDBAAD",
"0 	c #E3E3E3",
"a 	c #D2D2D2",
"b 	c #FDFDFD",
"c 	c #E1E1E1",
"d 	c #D8D8D8",
"e 	c #C5C5C5",
"f 	c #BDBBAE",
"g 	c #FEFEFE",
"h 	c #FBFBFB",
"i 	c #E8E8E8",
"j 	c #DEDEDE",
"k 	c #D5D5D5",
"l 	c #CDCDCD",
"m 	c #F6F6F6",
"n 	c #818181",
"o 	c #BFBDB0",
"p 	c #BEBBAE",
"q 	c #D1D1D1",
"r 	c #DCDCDC",
"s 	c #CFCFCF",
"t 	c #C4C4C4",
"u 	c #9F9B85",
"v 	c #C1BEB1",
"w 	c #9F9A84",
"x 	c #B9B6A9",
"y 	c #B1AFA4",
"z 	c #E8E7E3",
"A 	c #EAEAE8",
"B 	c #ECECEA",
"C 	c #E7E7E5",
"D 	c #E1E1E0",
"E 	c #E2E2E2",
"F 	c #CECECF",
"G 	c #808080",
"H 	c #BFBCAF",
"I 	c #9D9A8D",
"J 	c #B2B2B2",
"K 	c #B2B2B3",
"L 	c #B0B1B1",
"M 	c #BEBFBF",
"N 	c #B9B9B9",
"O 	c #7F7F7F",
"P 	c #E5E6E6",
"Q 	c #B3B0A3",
"R 	c #D7D7D7",
"S 	c #D5D5D6",
"T 	c #D3D4D4",
"U 	c #D2D3D3",
"V 	c #CCCCCD",
"W 	c #C2C2C2",
"X 	c #9E9984",
"Y 	c #A09B85",
"Z 	c #9D9882",
"` 	c #BAB7AA",
" .	c #B8B5A8",
"..	c #B6B3A7",
"+.	c #B5B2A5",
"@.	c #B4B1A4",
"#.	c #B3B1A4",
"$.	c #C1C1C1",
"%.	c #7E7E7E",
"&.	c #E9E9E9",
"*.	c #C0C0C0",
"=.	c #7D7D7D",
"-.	c #C3C3C3",
";.	c #9E9983",
">.	c #7C7C7C",
",.	c #7B7B7B",
"'.	c #BCB9AC",
").	c #BEBEBE",
"!.	c #7A7A7A",
"~.	c #BBB9AB",
"{.	c #BFBFBF",
"].	c #797979",
"^.	c #BCBCBC",
"/.	c #BBB8AB",
"(.	c #9C9782",
"_.	c #787878",
":.	c #BBBBBB",
"<.	c #777777",
"[.	c #DED1A4",
"}.	c #C4A22B",
"|.	c #CFAB32",
"1.	c #C5A125",
"2.	c #B7931A",
"3.	c #D0AE39",
"4.	c #DBC67D",
"5.	c #BBB9B4",
"6.	c #C89B00",
"7.	c #C89C00",
"8.	c #9B9680",
"9.	c #B9B5A4",
"0.	c #C49B09",
"a.	c #C79E0F",
"b.	c #CCAA33",
"c.	c #CCA931",
"d.	c #C59A02",
"e.	c #C2A027",
"f.	c #C59900",
"g.	c #767676",
"h.	c #E3DFD0",
"i.	c #C29700",
"j.	c #CDAF48",
"k.	c #E8E6E4",
"l.	c #E0D4CC",
"m.	c #D9CC9C",
"n.	c #C39A09",
"o.	c #C39700",
"p.	c #E2DDCF",
"q.	c #C09500",
"r.	c #CBAD47",
"s.	c #FAFAFA",
"t.	c #EFE2DB",
"u.	c #B36131",
"v.	c #DBD2B3",
"w.	c #C39C14",
"x.	c #BABABA",
"y.	c #757575",
"z.	c #B9B399",
"A.	c #BD9300",
"B.	c #C8AB46",
"C.	c #EEE2DA",
"D.	c #B36030",
"E.	c #DCD6C4",
"F.	c #C3A025",
"G.	c #747474",
"H.	c #E0DCCF",
"I.	c #BA9100",
"J.	c #C5A945",
"K.	c #E0E0E0",
"L.	c #EDE1D9",
"M.	c #DCD9D0",
"N.	c #C3A439",
"O.	c #BA9000",
"P.	c #B99100",
"Q.	c #BB9100",
"R.	c #BA9200",
"S.	c #B7B4A7",
"T.	c #DFDBCE",
"U.	c #B78E00",
"V.	c #C2A644",
"W.	c #DDDDDD",
"X.	c #F1EBE7",
"Y.	c #C58967",
"Z.	c #AA4E18",
"`.	c #D3A78E",
" +	c #DCDBD9",
".+	c #C5AB52",
"++	c #B7B7B7",
"@+	c #737373",
"#+	c #9A957F",
"$+	c #B7B097",
"%+	c #B58C00",
"&+	c #C0A444",
"*+	c #EBDED7",
"=+	c #C38560",
"-+	c #B26030",
";+	c #C7B36E",
">+	c #727272",
",+	c #DDDACD",
"'+	c #B28A00",
")+	c #BDA243",
"!+	c #EADDD6",
"~+	c #AF5A28",
"{+	c #E7D7CE",
"]+	c #B2602F",
"^+	c #C9BB8A",
"/+	c #B38C05",
"(+	c #B38A00",
"_+	c #B5B5B5",
":+	c #AF8800",
"<+	c #BAA042",
"[+	c #D6D6D6",
"}+	c #E8DBD4",
"|+	c #E6D6CD",
"1+	c #B25F2F",
"2+	c #CAC1A0",
"3+	c #B08904",
"4+	c #AE8800",
"5+	c #B4B4B4",
"6+	c #717171",
"7+	c #B6B3A6",
"8+	c #99947E",
"9+	c #B5AF96",
"0+	c #AC8600",
"a+	c #B89E42",
"b+	c #E7DBD3",
"c+	c #A54208",
"d+	c #AC521D",
"e+	c #B15F2F",
"f+	c #AE8B0D",
"g+	c #B3B3B3",
"h+	c #707070",
"i+	c #DCD8CC",
"j+	c #AA8400",
"k+	c #B59B41",
"l+	c #EEECEB",
"m+	c #DBC0B1",
"n+	c #B46436",
"o+	c #E7DDD7",
"p+	c #DBC0B0",
"q+	c #B36436",
"r+	c #BE7C55",
"s+	c #E8E3E0",
"t+	c #CECECE",
"u+	c #AC890D",
"v+	c #DBD7CB",
"w+	c #A78200",
"x+	c #B39940",
"y+	c #E1D2C8",
"z+	c #AC5420",
"A+	c #BA744B",
"B+	c #BB7850",
"C+	c #B76D41",
"D+	c #DDC7BA",
"E+	c #B87147",
"F+	c #CCCBCA",
"G+	c #A9870D",
"H+	c #6F6F6F",
"I+	c #747165",
"J+	c #A48000",
"K+	c #B0973F",
"L+	c #E2D7D1",
"M+	c #BF815E",
"N+	c #DCC7BB",
"O+	c #BB7750",
"P+	c #D8BFB0",
"Q+	c #C99A7F",
"R+	c #A5430A",
"S+	c #AA4F1A",
"T+	c #AB511C",
"U+	c #AB521E",
"V+	c #A94E18",
"W+	c #D6BDAF",
"X+	c #A6840D",
"Y+	c #B1B1B1",
"Z+	c #6E6E6E",
"`+	c #ECB068",
" @	c #EBAE66",
".@	c #EAAC64",
"+@	c #EAAA62",
"@@	c #E9A860",
"#@	c #E9A65E",
"$@	c #E8A45B",
"%@	c #E8A259",
"&@	c #E7A057",
"*@	c #E69E55",
"=@	c #E69B53",
"-@	c #E59951",
";@	c #E5974F",
">@	c #E4954D",
",@	c #DE9144",
"'@	c #A17D00",
")@	c #AD943E",
"!@	c #DECEC5",
"~@	c #AC5421",
"{@	c #AD5523",
"]@	c #D1AE9A",
"^@	c #E7E4E2",
"/@	c #E2D9D3",
"(@	c #E2D8D2",
"_@	c #E1D6D0",
":@	c #E1D5CE",
"<@	c #E5DEDB",
"[@	c #A3820C",
"}@	c #EBAF66",
"|@	c #EBAD64",
"1@	c #EAAB62",
"2@	c #EAA961",
"3@	c #E9A75F",
"4@	c #E9A55D",
"5@	c #E8A35B",
"6@	c #E7A158",
"7@	c #E79F56",
"8@	c #E69D54",
"9@	c #E69B52",
"0@	c #E59950",
"a@	c #E5974E",
"b@	c #E4944C",
"c@	c #DD9043",
"d@	c #9F7B00",
"e@	c #AB923D",
"f@	c #BA7851",
"g@	c #B4683B",
"h@	c #B16132",
"i@	c #A44107",
"j@	c #D1B19E",
"k@	c #A1800C",
"l@	c #B0B0B0",
"m@	c #6D6D6D",
"n@	c #EAAB63",
"o@	c #E9A85F",
"p@	c #E9A65D",
"q@	c #E79E55",
"r@	c #E69C53",
"s@	c #E59A51",
"t@	c #E5984F",
"u@	c #E4964D",
"v@	c #E4944B",
"w@	c #DC8F42",
"x@	c #9C7900",
"y@	c #A8903D",
"z@	c #DBCAC1",
"A@	c #D9C6BB",
"B@	c #D0B19E",
"C@	c #A6460D",
"D@	c #BE8360",
"E@	c #E5E5E4",
"F@	c #9E7E0C",
"G@	c #AFAFAF",
"H@	c #6C6C6C",
"I@	c #E8A45C",
"J@	c #E8A25A",
"K@	c #E7A058",
"L@	c #E79E56",
"M@	c #E69C54",
"N@	c #E69A52",
"O@	c #E59850",
"P@	c #E4954C",
"Q@	c #E4924A",
"R@	c #DC8E41",
"S@	c #997700",
"T@	c #A58E3C",
"U@	c #DBCBC2",
"V@	c #AD5725",
"W@	c #B8724A",
"X@	c #C99D84",
"Y@	c #DDD1CA",
"Z@	c #BD815D",
"`@	c #C08765",
" #	c #C18E70",
".#	c #9B7C0C",
"+#	c #997800",
"@#	c #AEAEAE",
"##	c #E9A75E",
"$#	c #E4934B",
"%#	c #E39149",
"&#	c #DC8D40",
"*#	c #967500",
"=#	c #A28C3B",
"-#	c #E2DFDD",
";#	c #D8C5BB",
">#	c #DED6D1",
",#	c #BA7954",
"'#	c #D8C5BA",
")#	c #C9A088",
"!#	c #BB7C57",
"~#	c #C49376",
"{#	c #E0DBD8",
"]#	c #BD815E",
"^#	c #C59A81",
"/#	c #987A0C",
"(#	c #ADADAD",
"_#	c #706D62",
":#	c #947300",
"<#	c #A08A3B",
"[#	c #DDD3CE",
"}#	c #AF5C2C",
"|#	c #D7C4B9",
"1#	c #DED7D3",
"2#	c #E2E1E0",
"3#	c #D9C9C0",
"4#	c #D8CCC6",
"5#	c #96780C",
"6#	c #ACACAC",
"7#	c #D4D1C6",
"8#	c #917100",
"9#	c #9D873A",
"0#	c #E1DEDD",
"a#	c #B06032",
"b#	c #AD5726",
"c#	c #B77149",
"d#	c #D6C3B8",
"e#	c #C18E6F",
"f#	c #B56C41",
"g#	c #BA7A55",
"h#	c #DED6D2",
"i#	c #B16133",
"j#	c #BB7F5D",
"k#	c #B8B8B8",
"l#	c #93750C",
"m#	c #ABABAB",
"n#	c #8E6F00",
"o#	c #9B8539",
"p#	c #E1E0E0",
"q#	c #D7C7BE",
"r#	c #D8CBC3",
"s#	c #DDD7D3",
"t#	c #D6C7BD",
"u#	c #D9CDC5",
"v#	c #DACFC9",
"w#	c #E0DEDD",
"x#	c #D3BDB0",
"y#	c #D3C2B8",
"z#	c #B6B6B6",
"A#	c #91730B",
"B#	c #8E7000",
"C#	c #AAAAAA",
"D#	c #ADAA9F",
"E#	c #8C6C00",
"F#	c #988238",
"G#	c #8E700B",
"H#	c #8B6C00",
"I#	c #896A02",
"J#	c #8E7315",
"K#	c #998543",
"L#	c #8A6C04",
"M#	c #896A00",
"N#	c #876900",
"O#	c #876A00",
"                                                                                                ",
"      . + + + + + + + + + + + + + + + + + + + + + @ # @                                         ",
"      . $ % % % % % % % % % % % % % % % % % & * & = - ; . .                                     ",
"      > , & & & & & & & & & & & & & & & & & * * $ ' ) ! ~ { #                                   ",
"      . , $ $ $ ] ] ] ] ] ] ] ] ] ] ] ] ] ] ] ] ] ] ] ^ / ( _ :                                 ",
"      . < [ [ [ ] & & & } & & & & & & & & & * * $ | ~ 1 2 3 4 5 + :                             ",
"      6 2 / / / ] / / / 7 / / / / / / / / / $ [ 8 9 0 a b & ' c d + e                           ",
"      @ 2 / / / ] / / / 7 / / / / / / / / / [ $ / f 0 a g h [ i j k l e                         ",
"      @ m 8 8 8 n 8 8 8 o 8 8 8 8 8 8 8 8 8 / [ / p 4 q g g < 8 ; r q s t                       ",
"      # m 8 8 8 n o o o u o o o o o o o o o o v v w x y z A B C D E 5 F > e                     ",
"      : * = = = G = = = H = = = = = = = = = = / [ o i k I J K K L K M N l #                     ",
"      : * = = = O = = = H = = = = = = = = = = 8 / 7 = P Q R S T U s V O { q W                   ",
"      e & 3 3 3 O p p p X p p p p p p p p p p p o Y 7 H Z `  ...+.@.#.O j ; $.                  ",
"      t & - - - %.- - - f - - - - - - - - - - - - o / 8 H - &.~ ; 4 4 %.; = *.                  ",
"      t % - - - =.- - - f - - - - - - - - - - - - p 8 / o = 3 - ' &.&.=.! $ $.                  ",
"      -.% ! ! ! =.9 9 9 ;.9 9 9 9 9 9 9 9 9 9 9 9 ;.f H u o o H H H p =.8 % $.                  ",
"      -.$ ! ! ! >.! ! ! 9 ! ! ! ! ! ! ! ! ! ! ! ! 9 ! ! p = 8 8 8 8 8 >./ % *.                  ",
"      W [ ' ' ' ,.' ' ' '.' ' ' ' ' ' ' ' ' ' ' ' '.' ' '.! - 3 = = = ,.8 [ ).                  ",
"      W [ ' ' ' ,.'.'.'.Z '.'.'.'.'.'.'.'.'.'.'.'.Z '.'.Z '.'.'.9 9 f ,.- 8 ).                  ",
"      *./ &.&.&.!.&.&.&.~.&.&.&.&.&.&.&.&.&.&.&.&.~.&.&.~.&.&.&.&.&.&.!.' = ^                   ",
"      {./ &.&.&.].&.&.&.~.&.&.&.&.&.&.&.&.&.&.&.&.~.&.&.~.&.&.&.&.&.&.].' 3 ^.                  ",
"      {.8 i i i ]./././.(././././././././././././.(././.(././././././.].&.- ^.                  ",
"      ).= ~ ~ ~ _.~ ~ ~ ` ~ ~ ~ ~ ~ ~ ~ ~ ~ ~ ~ ~ ` ~ ~ ` ~ ~ ~ ~ ~ ~ _.i ! :.                  ",
"      ^ = ~ ~ ~ <.~ ~ ~ ` ~ ~ ~ ~ ~ ~ ~ ~ ~ ~ ~ [.}.|.|.1.|.|.|.|.|.|.2.3.4.5.    6.7.7.7.7.6.  ",
"      ^.3 ( ( ( <.x x x 8.x x x x x x x x x x 9.0.a.b.b.b.b.b.b.b.b.b.b.c.d.e.    f.f.f.f.f.f.f.",
"      ^.- ( ( ( g.( ( ( x ( ( ( ( ( ( ( ( ( ( h.i.j.4 &.&.&.&.&.k.l.&.&.~ m.n.i.    o.o.o.o.o.o.",
"      :.! ; ; ; g.; ; ; x ; ; ; ; ; ; ; ; ; ; p.q.r.4 s.s.s.s.s.t.u.s.s.s.' v.w.q.    q.q.q.q.q.",
"      x.! ; ; ; y.x x x 8.x x x x x x x x x x z.A.B.c , , , , , C.D., , , , - E.F.A.    A.A.A.A.",
"      x.' 4 4 4 G.4 4 4  .4 4 4 4 4 4 4 4 4 4 H.I.J.K.< < < < < L.D.< < < < < = M.N.O.P.    Q.R.",
"      N &.0 0 0 G.0 0 0 S.0 0 0 0 0 0 0 0 0 0 T.U.V.W.2 2 2 2 X.Y.Z.`.2 2 2 2 2 /  +.+U.U.      ",
"      ++i 0 0 0 @+S.S.S.#+S.S.S.S.S.S.S.S.S.S.$+%+&+1 * * * * *+Z.=+-+* * * * * * [ r ;+%+%+    ",
"      ++~ E E E >+E E E S.E E E E E E E E E E ,+'+)+5 & & & & !+~+{+]+& & & & & & & [ r ^+/+(+  ",
"      _+~ E E E >+E E E S.E E E E E E E E E E ,+:+<+[+$ $ $ $ }+~+|+1+$ $ $ $ $ $ $ $ [ W.2+3+4+",
"      5+( c c c 6+7+7+7+8+7+7+7+7+7+7+7+7+7+7+9+0+a+{ [ [ [ [ b+c+d+e+[ [ [ [ [ [ [ [ [ 3 q f+0+",
"      g+; c c c h+c c c 7+c c c c c c c c c c i+j+k+q 8 8 8 8 l+m+n+o+8 8 8 p+q+q+q+q+r+s+t+u+j+",
"      g+4 K.K.K.h+K.K.K.+.K.K.K.K.K.K.K.K.K.K.v+w+x+s 3 3 3 3 3 y+z+A+A+A+A+B+C+D+D+D+E+q+F+G+w+",
"      J 0 ) ) ) H+H+H+H+H+H+H+H+H+H+H+H+H+H+H+I+J+K++ ' ' ' L+M+N+O+P+P+P+P+Q+R+S+T+U+V+W+. X+J+",
"      Y+E ) ) ) Z+`+ @.@+@@@#@$@%@&@*@=@-@;@>@,@'@)@. &.&.&.!@~@{@]@&.&.&.&.^@/@(@_@:@<@; # [@'@",
"      Y+c j j j Z+}@|@1@2@3@4@5@6@7@8@9@0@a@b@c@d@e@# f@g@g@h@i@j@~ ~ ~ ~ ~ ~ ~ ~ ~ ~ ~ 0 e k@d@",
"      l@K.j j j m@|@n@2@o@p@$@%@&@q@r@s@t@u@v@w@x@y@e z@A@A@B@C@D@E@( ( ( ( ( ( ( ( ( ( E W F@x@",
"      G@) W.W.W.H@1@2@3@p@I@J@K@L@M@N@O@a@P@Q@R@S@T@-.; ; ; U@V@W@X@; ; ; Y@Z@`@`@`@`@`@ #*..#+#",
"      @#) W.W.W.H@@@##4@$@J@K@7@8@=@-@;@>@$#%#&#*#=#$.4 4 4 -#;#>#,#4 4 4 '#)#!#~#{#]#]#^#^ /#*#",
"      (#W.r r r H@H@H@H@H@H@H@H@H@H@H@H@H@H@H@_#:#<#{.0 0 0 0 0 [#}#0 0 0 |#)#[#1#2#3#3#4#:.5#:#",
"      6#r 1 1 1 1 1 1 1 1 1 1 1 1 1 1 1 1 1 1 7#8#9#^.E E E E 0#a#b#c#E E d#e#f#g#E h#i#j#k#l#8#",
"      m#1 1 1 1 1 1 1 1 1 1 1 1 1 1 1 1 1 1 1 7#n#o#x.c c c c p#q#q#r#c c s#t#u#v#c w#x#y#z#A#B#",
"      C#Y+Y+Y+Y+Y+Y+Y+Y+Y+Y+Y+Y+Y+Y+Y+Y+Y+Y+Y+D#E#F#5+W W W W W W W W W W W W W W W W W *.g+G#H#",
"                                                I#J#K#K#K#K#K#K#K#K#K#K#K#K#K#K#K#K#K#K#K#K#L#M#",
"                                                  N#O#O#O#O#O#O#O#O#O#O#O#O#O#O#O#O#O#O#O#O#N#  "};
